<svg width="772" height="250" viewBox="0 0 772 250" fill="none" xmlns="http://www.w3.org/2000/svg">
<rect width="772" height="250" fill="url(#paint0_linear_57_132)"/>
<rect x="240" y="106.074" width="292.279" height="44.9262" rx="10" fill="#F4F4F4"/>
<rect x="349.475" y="114.852" width="80.5574" height="27.3689" rx="5" fill="#2CB3FF" fill-opacity="0.5"/>
<path fill-rule="evenodd" clip-rule="evenodd" d="M349.525 25C332.956 25 319.525 38.4315 319.525 55V66.2623C319.525 82.8308 332.956 96.2623 349.525 96.2623H372.308L383.041 114.852L393.774 96.2623H416.557C433.126 96.2623 446.557 82.8308 446.557 66.2623V55C446.557 38.4315 433.126 25 416.557 25H349.525Z" fill="#141414"/>
<path d="M387.689 44.1066L386.825 67.527H379.257L378.394 44.1066H387.689ZM383.041 78.7049C381.757 78.7049 380.656 78.2558 379.738 77.3576C378.831 76.4483 378.383 75.3449 378.394 74.0475C378.383 72.7833 378.831 71.7021 379.738 70.8039C380.656 69.9056 381.757 69.4565 383.041 69.4565C384.258 69.4565 385.332 69.9056 386.261 70.8039C387.202 71.7021 387.677 72.7833 387.689 74.0475C387.677 74.9124 387.451 75.6997 387.008 76.4095C386.576 77.1081 386.012 77.6681 385.315 78.0895C384.618 78.4998 383.86 78.7049 383.041 78.7049Z" fill="#F4F4F4"/>
<path d="M482.036 138.125C480.862 138.125 479.826 137.829 478.928 137.236C478.029 136.637 477.326 135.793 476.819 134.705C476.312 133.611 476.058 132.318 476.058 130.827C476.058 129.348 476.312 128.064 476.819 126.976C477.326 125.888 478.032 125.047 478.937 124.455C479.842 123.862 480.887 123.565 482.073 123.565C482.99 123.565 483.714 123.718 484.246 124.024C484.784 124.323 485.193 124.665 485.474 125.051C485.762 125.43 485.985 125.741 486.144 125.986H486.327V119.054H488.491V137.832H486.4V135.668H486.144C485.985 135.925 485.759 136.249 485.465 136.64C485.172 137.025 484.753 137.371 484.209 137.676C483.665 137.976 482.941 138.125 482.036 138.125ZM482.329 136.182C483.197 136.182 483.931 135.955 484.53 135.503C485.129 135.045 485.584 134.412 485.896 133.605C486.208 132.792 486.364 131.854 486.364 130.79C486.364 129.739 486.211 128.819 485.905 128.03C485.6 127.236 485.147 126.618 484.548 126.178C483.949 125.732 483.21 125.509 482.329 125.509C481.413 125.509 480.648 125.744 480.037 126.215C479.432 126.68 478.977 127.312 478.671 128.113C478.372 128.908 478.222 129.8 478.222 130.79C478.222 131.793 478.375 132.704 478.68 133.523C478.992 134.336 479.45 134.984 480.056 135.466C480.667 135.943 481.425 136.182 482.329 136.182Z" fill="black"/>
<path d="M472.755 119.054V137.832H470.591V119.054H472.755Z" fill="black"/>
<path d="M461.468 138.125C460.111 138.125 458.94 137.826 457.956 137.227C456.978 136.622 456.223 135.778 455.691 134.696C455.166 133.608 454.903 132.343 454.903 130.9C454.903 129.458 455.166 128.186 455.691 127.086C456.223 125.98 456.963 125.118 457.91 124.5C458.864 123.877 459.976 123.565 461.248 123.565C461.981 123.565 462.706 123.687 463.421 123.932C464.136 124.176 464.787 124.574 465.374 125.124C465.961 125.668 466.428 126.389 466.777 127.288C467.125 128.186 467.299 129.293 467.299 130.607V131.524H456.443V129.653H465.099C465.099 128.859 464.94 128.15 464.622 127.526C464.31 126.903 463.864 126.41 463.283 126.05C462.709 125.689 462.03 125.509 461.248 125.509C460.386 125.509 459.64 125.723 459.011 126.151C458.387 126.572 457.907 127.123 457.571 127.801C457.235 128.48 457.067 129.207 457.067 129.983V131.23C457.067 132.294 457.25 133.195 457.617 133.935C457.99 134.669 458.506 135.228 459.166 135.613C459.827 135.992 460.594 136.181 461.468 136.181C462.036 136.181 462.55 136.102 463.008 135.943C463.473 135.778 463.873 135.534 464.209 135.21C464.546 134.88 464.805 134.47 464.989 133.981L467.079 134.568C466.859 135.277 466.489 135.9 465.97 136.438C465.45 136.97 464.808 137.386 464.044 137.685C463.28 137.979 462.421 138.125 461.468 138.125Z" fill="black"/>
<path d="M449.436 137.832V123.748H451.6V137.832H449.436ZM450.536 121.401C450.114 121.401 449.751 121.258 449.445 120.97C449.146 120.683 448.996 120.338 448.996 119.934C448.996 119.531 449.146 119.185 449.445 118.898C449.751 118.611 450.114 118.467 450.536 118.467C450.958 118.467 451.319 118.611 451.618 118.898C451.924 119.185 452.077 119.531 452.077 119.934C452.077 120.338 451.924 120.683 451.618 120.97C451.319 121.258 450.958 121.401 450.536 121.401Z" fill="black"/>
<path d="M434.575 137.832V119.054H445.835V121.071H436.849V127.416H444.991V129.433H436.849V137.832H434.575Z" fill="black"/>
<path d="M417.413 137.832V123.748H419.504V125.876H419.651C419.907 125.179 420.372 124.613 421.044 124.179C421.717 123.745 422.475 123.528 423.318 123.528C423.477 123.528 423.676 123.531 423.914 123.538C424.153 123.544 424.333 123.553 424.455 123.565V125.766C424.382 125.747 424.214 125.72 423.951 125.683C423.694 125.64 423.422 125.619 423.135 125.619C422.45 125.619 421.839 125.763 421.301 126.05C420.769 126.331 420.348 126.722 420.036 127.224C419.73 127.719 419.577 128.284 419.577 128.92V137.832H417.413Z" fill="black"/>
<path d="M407.729 138.125C406.457 138.125 405.342 137.823 404.382 137.218C403.429 136.612 402.683 135.766 402.145 134.678C401.613 133.59 401.347 132.318 401.347 130.864C401.347 129.396 401.613 128.116 402.145 127.022C402.683 125.928 403.429 125.078 404.382 124.473C405.342 123.868 406.457 123.565 407.729 123.565C409 123.565 410.113 123.868 411.066 124.473C412.026 125.078 412.772 125.928 413.304 127.022C413.841 128.116 414.11 129.396 414.11 130.864C414.11 132.318 413.841 133.59 413.304 134.678C412.772 135.766 412.026 136.612 411.066 137.218C410.113 137.823 409 138.125 407.729 138.125ZM407.729 136.181C408.695 136.181 409.489 135.934 410.113 135.439C410.736 134.944 411.198 134.293 411.497 133.486C411.797 132.679 411.947 131.805 411.947 130.864C411.947 129.922 411.797 129.045 411.497 128.232C411.198 127.419 410.736 126.762 410.113 126.261C409.489 125.759 408.695 125.509 407.729 125.509C406.763 125.509 405.968 125.759 405.345 126.261C404.721 126.762 404.26 127.419 403.96 128.232C403.661 129.045 403.511 129.922 403.511 130.864C403.511 131.805 403.661 132.679 403.96 133.486C404.26 134.293 404.721 134.944 405.345 135.439C405.968 135.934 406.763 136.181 407.729 136.181Z" fill="black"/>
<path d="M398.904 123.748V125.582H391.605V123.748H398.904ZM393.732 120.374H395.896V133.798C395.896 134.409 395.985 134.867 396.162 135.173C396.346 135.472 396.578 135.674 396.859 135.778C397.146 135.876 397.449 135.925 397.767 135.925C398.005 135.925 398.201 135.913 398.354 135.888C398.506 135.858 398.629 135.833 398.72 135.815L399.16 137.759C399.014 137.814 398.809 137.869 398.546 137.924C398.283 137.985 397.95 138.015 397.547 138.015C396.935 138.015 396.336 137.884 395.75 137.621C395.169 137.358 394.686 136.958 394.301 136.42C393.922 135.882 393.732 135.203 393.732 134.384V120.374Z" fill="black"/>
<path d="M386.652 137.832V123.748H388.816V137.832H386.652ZM387.752 121.401C387.33 121.401 386.967 121.258 386.661 120.97C386.361 120.683 386.212 120.338 386.212 119.934C386.212 119.531 386.361 119.185 386.661 118.898C386.967 118.611 387.33 118.467 387.752 118.467C388.174 118.467 388.534 118.611 388.834 118.898C389.14 119.185 389.292 119.531 389.292 119.934C389.292 120.338 389.14 120.683 388.834 120.97C388.534 121.258 388.174 121.401 387.752 121.401Z" fill="black"/>
<path d="M375.933 138.125C374.76 138.125 373.724 137.829 372.825 137.236C371.927 136.637 371.224 135.793 370.716 134.705C370.209 133.611 369.955 132.318 369.955 130.827C369.955 129.348 370.209 128.064 370.716 126.976C371.224 125.888 371.93 125.047 372.834 124.455C373.739 123.862 374.784 123.565 375.97 123.565C376.887 123.565 377.611 123.718 378.143 124.024C378.681 124.323 379.09 124.665 379.372 125.051C379.659 125.43 379.882 125.741 380.041 125.986H380.224V119.054H382.388V137.832H380.298V135.668H380.041C379.882 135.925 379.656 136.249 379.363 136.64C379.069 137.025 378.65 137.371 378.106 137.676C377.562 137.976 376.838 138.125 375.933 138.125ZM376.227 136.182C377.095 136.182 377.828 135.955 378.427 135.503C379.026 135.045 379.482 134.412 379.793 133.605C380.105 132.792 380.261 131.854 380.261 130.79C380.261 129.739 380.108 128.819 379.803 128.03C379.497 127.236 379.045 126.618 378.446 126.178C377.847 125.732 377.107 125.509 376.227 125.509C375.31 125.509 374.546 125.744 373.935 126.215C373.329 126.68 372.874 127.312 372.568 128.113C372.269 128.908 372.119 129.8 372.119 130.79C372.119 131.793 372.272 132.704 372.578 133.523C372.889 134.336 373.348 134.984 373.953 135.466C374.564 135.943 375.322 136.182 376.227 136.182Z" fill="black"/>
<path d="M355.477 137.832V119.054H366.81V121.071H357.751V127.416H366.223V129.433H357.751V135.815H366.957V137.832H355.477Z" fill="black"/>
<path d="M338.799 138.125C337.442 138.125 336.272 137.826 335.287 137.227C334.309 136.622 333.555 135.778 333.023 134.696C332.497 133.608 332.234 132.343 332.234 130.9C332.234 129.458 332.497 128.186 333.023 127.086C333.555 125.98 334.294 125.118 335.242 124.5C336.195 123.877 337.308 123.565 338.579 123.565C339.313 123.565 340.037 123.687 340.752 123.932C341.467 124.176 342.118 124.574 342.705 125.124C343.292 125.668 343.76 126.389 344.108 127.288C344.456 128.186 344.631 129.293 344.631 130.607V131.524H333.775V129.653H342.43C342.43 128.859 342.271 128.15 341.953 127.526C341.642 126.903 341.195 126.41 340.615 126.05C340.04 125.689 339.361 125.509 338.579 125.509C337.717 125.509 336.971 125.723 336.342 126.151C335.718 126.572 335.239 127.123 334.902 127.801C334.566 128.48 334.398 129.207 334.398 129.983V131.23C334.398 132.294 334.581 133.195 334.948 133.935C335.321 134.669 335.838 135.228 336.498 135.613C337.158 135.992 337.925 136.181 338.799 136.181C339.368 136.181 339.881 136.102 340.34 135.943C340.804 135.778 341.204 135.534 341.541 135.21C341.877 134.88 342.137 134.47 342.32 133.981L344.411 134.568C344.19 135.277 343.821 135.9 343.301 136.438C342.782 136.97 342.14 137.386 341.376 137.685C340.612 137.979 339.753 138.125 338.799 138.125Z" fill="black"/>
<path d="M319.955 129.36V137.832H317.791V123.748H319.881V125.949H320.065C320.395 125.234 320.896 124.659 321.569 124.225C322.241 123.785 323.109 123.565 324.173 123.565C325.126 123.565 325.96 123.761 326.676 124.152C327.391 124.537 327.947 125.124 328.344 125.912C328.742 126.695 328.94 127.685 328.94 128.883V137.832H326.776V129.03C326.776 127.923 326.489 127.061 325.915 126.444C325.34 125.821 324.552 125.509 323.549 125.509C322.858 125.509 322.241 125.659 321.697 125.958C321.159 126.258 320.734 126.695 320.422 127.269C320.111 127.844 319.955 128.541 319.955 129.36Z" fill="black"/>
<path d="M311.664 137.832V123.748H313.828V137.832H311.664ZM312.764 121.401C312.342 121.401 311.979 121.258 311.673 120.97C311.373 120.683 311.224 120.338 311.224 119.934C311.224 119.531 311.373 119.185 311.673 118.898C311.979 118.611 312.342 118.467 312.764 118.467C313.186 118.467 313.546 118.611 313.846 118.898C314.152 119.185 314.304 119.531 314.304 119.934C314.304 120.338 314.152 120.683 313.846 120.97C313.546 121.258 313.186 121.401 312.764 121.401Z" fill="black"/>
<path d="M307.701 119.054V137.832H305.537V119.054H307.701Z" fill="black"/>
<path d="M292.597 129.36V137.832H290.433V123.748H292.524V125.949H292.707C293.037 125.234 293.538 124.659 294.211 124.225C294.883 123.785 295.751 123.565 296.815 123.565C297.768 123.565 298.603 123.761 299.318 124.152C300.033 124.537 300.589 125.124 300.987 125.912C301.384 126.695 301.583 127.685 301.583 128.883V137.832H299.419V129.03C299.419 127.923 299.131 127.061 298.557 126.444C297.982 125.821 297.194 125.509 296.191 125.509C295.501 125.509 294.883 125.659 294.339 125.958C293.801 126.258 293.376 126.695 293.065 127.269C292.753 127.844 292.597 128.541 292.597 129.36Z" fill="black"/>
<path d="M286.167 119.054V137.832H283.893V119.054H286.167Z" fill="black"/>
<path d="M610.395 136.227V121.682H620.324V124.537H613.91V127.52H619.692V130.382H613.91V136.227H610.395Z" fill="#141414"/>
<path d="M608.383 126.952H604.832C604.785 126.587 604.688 126.258 604.541 125.965C604.394 125.671 604.2 125.42 603.958 125.212C603.717 125.003 603.43 124.845 603.099 124.736C602.772 124.622 602.41 124.565 602.012 124.565C601.307 124.565 600.698 124.738 600.187 125.084C599.68 125.43 599.29 125.929 599.015 126.582C598.745 127.236 598.61 128.027 598.61 128.955C598.61 129.921 598.748 130.73 599.022 131.384C599.302 132.032 599.692 132.522 600.194 132.854C600.701 133.18 601.3 133.344 601.991 133.344C602.379 133.344 602.732 133.294 603.049 133.195C603.371 133.095 603.653 132.951 603.894 132.761C604.141 132.567 604.342 132.333 604.498 132.058C604.659 131.779 604.77 131.464 604.832 131.114L608.383 131.135C608.322 131.779 608.135 132.413 607.822 133.038C607.514 133.663 607.091 134.234 606.551 134.75C606.011 135.261 605.353 135.669 604.576 135.972C603.805 136.275 602.919 136.426 601.92 136.426C600.604 136.426 599.425 136.137 598.383 135.56C597.346 134.977 596.527 134.13 595.926 133.017C595.324 131.904 595.024 130.55 595.024 128.955C595.024 127.354 595.329 125.998 595.94 124.885C596.551 123.772 597.377 122.927 598.419 122.35C599.46 121.772 600.627 121.483 601.92 121.483C602.801 121.483 603.615 121.606 604.363 121.852C605.111 122.094 605.769 122.449 606.338 122.918C606.906 123.382 607.367 123.952 607.723 124.629C608.078 125.306 608.298 126.081 608.383 126.952Z" fill="#141414"/>
<path d="M583.58 136.227H579.802L584.709 121.682H589.39L594.298 136.227H590.519L587.103 125.347H586.989L583.58 136.227ZM583.076 130.503H590.974V133.173H583.076V130.503Z" fill="#141414"/>
<path d="M567.719 136.227V125.318H571.093V127.307H571.206C571.405 126.587 571.729 126.052 572.179 125.702C572.629 125.347 573.152 125.169 573.749 125.169C573.91 125.169 574.076 125.181 574.246 125.205C574.416 125.224 574.575 125.254 574.722 125.297V128.315C574.556 128.259 574.338 128.214 574.068 128.18C573.803 128.147 573.567 128.131 573.358 128.131C572.946 128.131 572.575 128.223 572.243 128.408C571.916 128.588 571.658 128.841 571.469 129.168C571.284 129.49 571.192 129.868 571.192 130.304V136.227H567.719Z" fill="#141414"/>
<path d="M560.429 136.433C559.283 136.433 558.298 136.199 557.474 135.73C556.655 135.257 556.023 134.598 555.578 133.756C555.137 132.908 554.917 131.926 554.917 130.808C554.917 129.686 555.137 128.704 555.578 127.861C556.023 127.013 556.655 126.355 557.474 125.886C558.298 125.413 559.283 125.176 560.429 125.176C561.574 125.176 562.557 125.413 563.376 125.886C564.2 126.355 564.832 127.013 565.272 127.861C565.717 128.704 565.94 129.686 565.94 130.808C565.94 131.926 565.717 132.908 565.272 133.756C564.832 134.598 564.2 135.257 563.376 135.73C562.557 136.199 561.574 136.433 560.429 136.433ZM560.45 133.813C560.867 133.813 561.219 133.685 561.508 133.429C561.797 133.173 562.017 132.818 562.169 132.364C562.325 131.909 562.403 131.384 562.403 130.787C562.403 130.181 562.325 129.651 562.169 129.196C562.017 128.741 561.797 128.386 561.508 128.131C561.219 127.875 560.867 127.747 560.45 127.747C560.019 127.747 559.654 127.875 559.356 128.131C559.063 128.386 558.838 128.741 558.681 129.196C558.53 129.651 558.454 130.181 558.454 130.787C558.454 131.384 558.53 131.909 558.681 132.364C558.838 132.818 559.063 133.173 559.356 133.429C559.654 133.685 560.019 133.813 560.45 133.813Z" fill="#141414"/>
<path d="M554.017 125.318V127.875H547V125.318H554.017ZM548.463 136.227V124.764C548.463 123.921 548.622 123.223 548.939 122.669C549.256 122.11 549.696 121.694 550.26 121.419C550.823 121.14 551.474 121 552.213 121C552.696 121 553.151 121.038 553.577 121.114C554.008 121.185 554.327 121.249 554.536 121.305L553.982 123.848C553.854 123.805 553.697 123.77 553.513 123.741C553.333 123.713 553.162 123.699 553.001 123.699C552.594 123.699 552.315 123.789 552.163 123.969C552.012 124.149 551.936 124.395 551.936 124.707V136.227H548.463Z" fill="#141414"/>
<defs>
<linearGradient id="paint0_linear_57_132" x1="386" y1="0" x2="386" y2="250" gradientUnits="userSpaceOnUse">
<stop stop-color="#FFD749"/>
<stop offset="1" stop-color="#FFC700"/>
</linearGradient>
</defs>
</svg>
