<svg width="312" height="312" viewBox="0 0 312 312" fill="none" xmlns="http://www.w3.org/2000/svg">
<rect width="312" height="312" rx="10" fill="url(#paint0_linear_57_133)"/>
<path fill-rule="evenodd" clip-rule="evenodd" d="M87.0344 86C70.4659 86 57.0344 99.4315 57.0344 116V167.034C57.0344 183.603 70.4659 197.034 87.0344 197.034H139.277L156 226L172.723 197.034H224.965C241.534 197.034 254.965 183.603 254.965 167.034V116C254.965 99.4315 241.534 86 224.965 86H87.0344Z" fill="#141414"/>
<path d="M163.241 115.77L161.897 152.262H150.104L148.759 115.77H163.241ZM156 169.678C154 169.678 152.285 168.978 150.854 167.579C149.44 166.162 148.742 164.443 148.759 162.421C148.742 160.452 149.44 158.767 150.854 157.367C152.285 155.968 154 155.268 156 155.268C157.897 155.268 159.569 155.968 161.017 157.367C162.483 158.767 163.224 160.452 163.241 162.421C163.224 163.769 162.871 164.996 162.181 166.102C161.509 167.19 160.629 168.063 159.543 168.719C158.457 169.359 157.276 169.678 156 169.678Z" fill="#F4F4F4"/>
<defs>
<linearGradient id="paint0_linear_57_133" x1="156" y1="0" x2="156" y2="312" gradientUnits="userSpaceOnUse">
<stop stop-color="#FFD749"/>
<stop offset="1" stop-color="#FFC700"/>
</linearGradient>
</defs>
</svg>
